<svg xmlns="http://www.w3.org/2000/svg" width="111.841" height="32" viewBox="0 0 111.841 32">
  <path id="weland_stal_pos_svg_rgb_2" d="M94.652,14.384l-4.111,12h-4.19L82.684,18.67,80.97,23.686h1.508l-.921,2.7H75.144l.921-2.7h1.587L80.859,14.4H79.24l.937-2.746H84.51l4.524,9.508L91.351,14.4H89.573l.937-2.746h6.54L96.113,14.4l-1.46-.016Zm-53.46,7.46-.667,1.841H36.763L37.89,20.4h2.016l.921-2.7H38.811l1.127-3.3h3.81l-.667,1.841h2.7l1.571-4.587H34.462L33.525,14.4H35l-3.19,9.286H30.335l-.921,2.7H42.3l1.556-4.54ZM73.478,23.67h1.4l-.921,2.7H66.478l.921-2.7h1.54l-.127-.9H64.589l-.492.9h1.429l-.921,2.7H58.192l.921-2.7H60.6l5.1-9.27H64.16l.937-2.746h6.317ZM68.43,20.781l-.651-3.794-2.1,3.794ZM56.4,21.8a3,3,0,0,1-1.365,1.524,3.759,3.759,0,0,1-1.7.365H50.922l3.19-9.3h1.381l.937-2.73-7.7-.016L47.8,14.384h1.381L45.97,23.67H44.6l-.921,2.7h13.3l1.587-4.619Zm55.841-5.968a7.665,7.665,0,0,1-.079,3.683,9.434,9.434,0,0,1-1.746,3.651,8.466,8.466,0,0,1-5.27,2.984,18.44,18.44,0,0,1-3.206.27c-2.444,0-8.651-.048-8.651-.048l.921-2.7h1.365l3.19-9.286H97.4l.937-2.746,7.714.016C109.875,11.654,111.668,13.749,112.24,15.829Zm-5.3-.651a2.9,2.9,0,0,0-2.127-.762c-.571-.048-1.19-.032-1.19-.032l-3.175,9.286a6.272,6.272,0,0,0,5.064-1.841C107.224,20.241,108.319,16.432,106.938,15.178ZM38.081,4.416s-2.873.016-4.524.016-3.286.508-4.317,3.492c-.778,2.238-3.81,11.127-3.81,11.127L24.065,4.416H18.017S13.446,17.987,13,19.21L12.256,9.083h1.825V4.416H4.7V9.083H6.668L8.51,26.368h7l4.333-12.7.889,12.7h7.143l5.1-15a3.741,3.741,0,0,1,1.222-1.889,2.419,2.419,0,0,1,1.7-.413h79.016L116.541,4.4l-78.46.016ZM96.478,35.4a1.327,1.327,0,0,1-.81.222,1.478,1.478,0,0,1-.889-.27.932.932,0,0,1-.365-.794h-.937v.032a1.478,1.478,0,0,0,.651,1.333,2.618,2.618,0,0,0,1.556.476,2.462,2.462,0,0,0,1.508-.429,1.386,1.386,0,0,0,.571-1.159,1.509,1.509,0,0,0-.476-1.143,3.358,3.358,0,0,0-1.413-.7,3,3,0,0,1-.968-.413A.687.687,0,0,1,94.6,32a.771.771,0,0,1,.27-.6,1.1,1.1,0,0,1,.762-.238,1.258,1.258,0,0,1,.825.27.936.936,0,0,1,.3.73H97.7l.016-.032a1.548,1.548,0,0,0-.556-1.254,2.519,2.519,0,0,0-2.968-.048A1.436,1.436,0,0,0,93.621,32a1.394,1.394,0,0,0,.508,1.111,3.912,3.912,0,0,0,1.46.683,2.656,2.656,0,0,1,.921.413.758.758,0,0,1,.254.6A.708.708,0,0,1,96.478,35.4Zm6.4-4.952H98.3v.778h1.778V36.3h.984V31.225h1.81v-.778Zm3.889,5.873h1.016l-2.016-5.857h-.937l-2.048,5.857H103.8l.444-1.365h2.079Zm-1.492-4.508h.032l.746,2.317h-1.54Zm-.524-2.032a.76.76,0,0,0,.524.19.721.721,0,0,0,.508-.19.614.614,0,0,0,.206-.492.637.637,0,0,0-.206-.492.734.734,0,0,0-.508-.206.706.706,0,0,0-.524.206.636.636,0,0,0-.206.492A.594.594,0,0,0,104.748,29.781Zm.3-.7a.271.271,0,0,1,.413,0,.344.344,0,0,1,.079.222.292.292,0,0,1-.492.206.244.244,0,0,1-.079-.206A.379.379,0,0,1,105.049,29.083Zm4.635,1.365H108.7V36.3h3.73v-.778h-2.746Z" transform="translate(-4.7 -4.4)" fill="#fff"/>
</svg>
